<svg width="24" height="24" viewBox="0 0 24 24" fill="none" xmlns="http://www.w3.org/2000/svg"><path fill-rule="evenodd" clip-rule="evenodd" d="M22.8129 13.6746C23.445 13.8739 23.7959 14.5479 23.5966 15.1799L23.2975 16.1285L22.8968 17.0957L22.4134 18.0244L21.8509 18.9074L21.2135 19.738L20.5062 20.5099L19.7343 21.2172L18.9037 21.8546L18.0207 22.4171L17.1385 22.8764C16.5506 23.1824 15.826 22.9539 15.52 22.3661C15.2139 21.7782 15.4424 21.0536 16.0303 20.7475L16.8195 20.3367L17.5258 19.8868L18.1901 19.377L18.8075 18.8113L19.3733 18.1939L19.883 17.5295L20.333 16.8233L20.7196 16.0805L21.0401 15.3068L21.3076 14.4582C21.5069 13.8262 22.1809 13.4753 22.8129 13.6746Z" fill="var(--md-sys-color-primary)"/><path fill-rule="evenodd" clip-rule="evenodd" d="M22.916 11.3203C22.2689 11.4637 21.6281 11.0555 21.4847 10.4085L21.2921 9.53978L21.0403 8.74114L20.7198 7.96749L20.3332 7.22471L19.8833 6.51846L19.3735 5.85411L18.8077 5.23673L18.1904 4.67099L17.526 4.16122L16.8198 3.71129L16.077 3.32462L15.3033 3.00417L14.5047 2.75236L13.6872 2.57111L12.8569 2.46181L12.0203 2.42529L11.1837 2.46181L10.3535 2.57111L9.53596 2.75236L8.73733 3.00417L7.96367 3.32463L7.22091 3.71128L6.51465 4.16122L5.8503 4.671L5.23291 5.23672L4.66718 5.85412L4.15741 6.51846L3.70748 7.22471L3.32081 7.96749L3.00036 8.74112L2.74854 9.53978L2.5673 10.3573L2.458 11.1875L2.42147 12.0242L2.458 12.8607L2.5673 13.691L2.74855 14.5085L3.00035 15.3071L3.32081 16.0808L3.70748 16.8236L4.15741 17.5298L4.66718 18.1942L5.23292 18.8116L5.85031 19.3773L6.51464 19.8871L7.22092 20.337L7.96368 20.7237L8.73731 21.0441L9.53597 21.2959L10.3535 21.4772L11.1837 21.5865L12.0727 21.6253C12.7348 21.6542 13.2481 22.2144 13.2192 22.8765C13.1903 23.5386 12.6301 24.0519 11.968 24.023L10.9744 23.9796L9.93635 23.843L8.91421 23.6164L7.9157 23.3015L6.94843 22.9009L6.01976 22.4174L5.13676 21.8549L4.30614 21.2175L3.53424 20.5102L2.82692 19.7383L2.18957 18.9077L1.62703 18.0247L1.1436 17.096L0.742946 16.1288L0.428117 15.1303L0.201511 14.1081L0.0648537 13.0701L0.0191861 12.0241L0.0648564 10.9782L0.201512 9.94017L0.428117 8.91802L0.742943 7.91951L1.1436 6.95224L1.62704 6.02357L2.18957 5.14057L2.82692 4.30996L3.53424 3.53805L4.30614 2.83073L5.13676 2.19338L6.01976 1.63085L6.94843 1.14741L7.9157 0.746757L8.91421 0.431929L9.93635 0.205324L10.9744 0.0686671L12.0203 0.0229993L13.0663 0.068667L14.1043 0.205324L15.1265 0.431928L16.125 0.746757L17.0922 1.14741L18.0209 1.63085L18.9039 2.19338L19.7345 2.83073L20.5064 3.53805L21.2137 4.30996L21.8511 5.14057L22.4136 6.02357L22.8971 6.95224L23.2977 7.91951L23.6125 8.91802L23.8278 9.88901C23.9713 10.536 23.563 11.1769 22.916 11.3203Z" fill="var(--md-sys-color-secondary-container)"/></svg>
